<?xml version="1.0" encoding="UTF-8" standalone="no"?> <svg id="Layer_1" data-name="Layer 1" xmlns="http://www.w3.org/2000/svg" viewBox="0 0 128 128"><defs><style>.cls-1{fill:#2d3e50;}.cls-2{fill:#1d75b8;}</style></defs><title>a</title><path class="cls-1" d="M88.56236,1.85873H79.75162a11.95858,11.95858,0,1,0,0,23.91715h8.81074a11.95858,11.95858,0,0,0,0-23.91715Zm0,19.81277H79.75162a7.85419,7.85419,0,1,1,0-15.70839h8.81074a7.85419,7.85419,0,0,1,0,15.70839Z"/><path class="cls-2" d="M102.03255,99.216V90.6498a1.58227,1.58227,0,0,0-1.58023-1.58023H61.77884V82.08363a1.58066,1.58066,0,0,0-3.16132,0v6.98594H19.82883a1.58245,1.58245,0,0,0-1.58109,1.58023V99.216a1.58066,1.58066,0,0,0,3.16132,0V92.23046H58.64073V99.216a1.58066,1.58066,0,0,0,3.16132,0V92.23046H98.87123V99.216a1.58066,1.58066,0,0,0,3.16132,0Z"/><path class="cls-2" d="M108.215,39.15608H85.87948V31.96295a1.66363,1.66363,0,1,0-3.32725,0v7.19314H60.0963a1.66547,1.66547,0,0,0-1.66363,1.66363v8.85676a1.66406,1.66406,0,0,0,3.32811,0V42.48333h44.79064v7.19314a1.66363,1.66363,0,1,0,3.32725,0V40.81971A1.66547,1.66547,0,0,0,108.215,39.15608Z"/><path class="cls-1" d="M74.01019,66.17586A10.136,10.136,0,0,0,63.875,56.03876H56.407a10.13613,10.13613,0,1,0,0,20.27226h7.468A10.13561,10.13561,0,0,0,74.01019,66.17586Z"/><path class="cls-1" d="M111.90656,56.03876h-7.468a10.13613,10.13613,0,1,0,0,20.27226h7.468a10.13613,10.13613,0,0,0,0-20.27226Z"/><path class="cls-1" d="M23.56336,105.86907h-7.468a10.1361,10.1361,0,1,0,0,20.27221h7.468a10.1361,10.1361,0,0,0,0-20.27221Z"/><path class="cls-1" d="M63.87511,105.86907h-7.468a10.1361,10.1361,0,1,0,0,20.27221h7.468a10.1361,10.1361,0,0,0,0-20.27221Z"/><path class="cls-1" d="M104.25476,105.86907h-7.468a10.1361,10.1361,0,1,0,0,20.27221h7.468a10.1361,10.1361,0,0,0,0-20.27221Z"/></svg>