<?xml version="1.0" encoding="utf-8"?>
<!-- Generator: Adobe Illustrator 23.0.1, SVG Export Plug-In . SVG Version: 6.00 Build 0)  -->
<svg version="1.0" id="Calque_1" xmlns="http://www.w3.org/2000/svg" xmlns:xlink="http://www.w3.org/1999/xlink" x="0px" y="0px"
	 viewBox="0 0 42.52 42.52" enable-background="new 0 0 42.52 42.52" xml:space="preserve">
<g>
	<path fill="#182F5E" d="M36.38,0.97H6.25c-1.07,0-1.94,0.87-1.94,1.94v36.43c0,1.07,0.87,1.94,1.94,1.94h30.13
		c1.07,0,1.94-0.87,1.94-1.94V2.92C38.32,1.84,37.45,0.97,36.38,0.97z M34.31,37.96h-26V4.31h26V37.96z"/>
	<g>
		<polygon fill="#182F5E" points="15.97,12.4 15.97,12.4 11.23,12.4 11.23,12.4 11.23,7.67 11.23,7.67 15.97,7.67 15.97,7.67 		"/>
		<polygon fill="#182F5E" points="31.39,12.4 31.39,12.4 18.94,12.4 18.94,12.4 18.94,7.67 18.94,7.67 31.39,7.67 31.39,7.67 		"/>
		<polygon fill="#182F5E" points="15.97,19.77 15.97,19.77 11.23,19.77 11.23,19.77 11.23,15.04 11.23,15.04 15.97,15.04 
			15.97,15.04 		"/>
		<polygon fill="#182F5E" points="31.39,19.77 31.39,19.77 18.94,19.77 18.94,19.77 18.94,15.04 18.94,15.04 31.39,15.04 
			31.39,15.04 		"/>
		<polygon fill="#182F5E" points="15.97,27.23 15.97,27.23 11.23,27.23 11.23,27.23 11.23,22.49 11.23,22.49 15.97,22.49 
			15.97,22.49 		"/>
		<polygon fill="#182F5E" points="31.39,27.23 31.39,27.23 18.94,27.23 18.94,27.23 18.94,22.49 18.94,22.49 31.39,22.49 
			31.39,22.49 		"/>
		<polygon fill="#182F5E" points="15.97,34.59 15.97,34.59 11.23,34.59 11.23,34.59 11.23,29.86 11.23,29.86 15.97,29.86 
			15.97,29.86 		"/>
		<polygon fill="#182F5E" points="31.39,34.59 31.39,34.59 18.94,34.59 18.94,34.59 18.94,29.86 18.94,29.86 31.39,29.86 
			31.39,29.86 		"/>
	</g>
</g>
</svg>
