<?xml version="1.0" encoding="utf-8"?>
<!-- Generator: Adobe Illustrator 23.0.1, SVG Export Plug-In . SVG Version: 6.00 Build 0)  -->
<svg version="1.0" id="Calque_1" xmlns="http://www.w3.org/2000/svg" xmlns:xlink="http://www.w3.org/1999/xlink" x="0px" y="0px"
	 viewBox="0 0 42.52 42.52" enable-background="new 0 0 42.52 42.52" xml:space="preserve">
<g>
	<path fill="#182F5E" d="M40.5,9.8L22.05,2.08c-0.29-0.12-0.58-0.17-0.87-0.17c-0.29,0-0.59,0.05-0.88,0.17L1.84,9.8
		c-1.12,0.47-1.65,1.76-1.18,2.89c0.47,1.12,1.76,1.65,2.89,1.18L21.17,6.5l17.63,7.38c1.12,0.47,2.42-0.06,2.89-1.18
		C42.15,11.57,41.62,10.27,40.5,9.8z"/>
	<g>
		<path fill="#182F5E" d="M6.84,14.62v3.82v2.03v15.69c0,2.08,1.69,3.76,3.76,3.76h6.77V24.03h7.6v15.89h6.77
			c2.08,0,3.76-1.69,3.76-3.76V20.47v-2.03v-3.82l-14.34-6L6.84,14.62z"/>
	</g>
</g>
</svg>
