<?xml version="1.0" encoding="utf-8"?>
<!-- Generator: Adobe Illustrator 23.0.1, SVG Export Plug-In . SVG Version: 6.00 Build 0)  -->
<svg version="1.0" id="Calque_1" xmlns="http://www.w3.org/2000/svg" xmlns:xlink="http://www.w3.org/1999/xlink" x="0px" y="0px"
	 viewBox="0 0 42.52 42.52" enable-background="new 0 0 42.52 42.52" xml:space="preserve">
<g>
	<path fill-rule="evenodd" clip-rule="evenodd" fill="#182F5E" d="M26.62,12.86c0,0.45-0.37,0.82-0.82,0.82h-8.74
		c-0.45,0-0.82-0.37-0.82-0.82V4.12c0-0.45,0.37-0.82,0.82-0.82h8.74c0.45,0,0.82,0.37,0.82,0.82V12.86z"/>
	<path fill-rule="evenodd" clip-rule="evenodd" fill="#182F5E" d="M26.62,36.7c0,0.45-0.37,0.82-0.82,0.82h-8.74
		c-0.45,0-0.82-0.37-0.82-0.82v-8.74c0-0.45,0.37-0.82,0.82-0.82h8.74c0.45,0,0.82,0.37,0.82,0.82V36.7z"/>
	<path fill-rule="evenodd" clip-rule="evenodd" fill="#182F5E" d="M41.15,36.7c0,0.45-0.37,0.82-0.82,0.82h-8.74
		c-0.45,0-0.82-0.37-0.82-0.82v-8.74c0-0.45,0.37-0.82,0.82-0.82h8.74c0.45,0,0.82,0.37,0.82,0.82V36.7z"/>
	<path fill-rule="evenodd" clip-rule="evenodd" fill="#182F5E" d="M11.85,36.7c0,0.45-0.37,0.82-0.82,0.82H2.29
		c-0.45,0-0.82-0.37-0.82-0.82v-8.74c0-0.45,0.37-0.82,0.82-0.82h8.74c0.45,0,0.82,0.37,0.82,0.82V36.7z"/>
	<rect x="19.88" y="13.68" fill-rule="evenodd" clip-rule="evenodd" fill="#182F5E" width="3.08" height="13.46"/>
	<rect x="5.12" y="18.93" fill-rule="evenodd" clip-rule="evenodd" fill="#182F5E" width="32.39" height="3.08"/>
	<rect x="34.42" y="20.41" fill-rule="evenodd" clip-rule="evenodd" fill="#182F5E" width="3.08" height="6.73"/>
	<rect x="5.12" y="20.41" fill-rule="evenodd" clip-rule="evenodd" fill="#182F5E" width="3.08" height="6.73"/>
</g>
</svg>
