<svg id="Layer_1" data-name="Layer 1" xmlns="http://www.w3.org/2000/svg" viewBox="0 0 286 222.33"><defs><style>.cls-1,.cls-3{fill:#fff;}.cls-2{fill:#3d4752;}.cls-3,.cls-4{stroke:#3d4752;stroke-miterlimit:10;stroke-width:3px;}.cls-4{fill:none;}</style></defs><title>org-chart-feature</title><rect class="cls-1" x="105.59" y="1.5" width="79.9" height="25.19" rx="1.16" ry="1.16"/><path class="cls-2" d="M184,7V29.21h-76.9V7H184m.34-3H106.75a2.66,2.66,0,0,0-2.66,2.66V29.55a2.66,2.66,0,0,0,2.66,2.66h77.59A2.66,2.66,0,0,0,187,29.55V6.67A2.66,2.66,0,0,0,184.34,4Z" transform="translate(0 -4.02)"/><rect class="cls-2" x="105.62" y="1.15" width="24.25" height="25.82"/><path class="cls-1" d="M125.27,28.08c0,.32,0,.65-.06,1h-17c0-.32-.06-.65-.06-1a8.56,8.56,0,0,1,6.3-8.24,5.12,5.12,0,1,1,4.49,0A8.56,8.56,0,0,1,125.27,28.08Z" transform="translate(0 -4.02)"/><rect class="cls-1" x="1.5" y="40.29" width="79.9" height="25.19" rx="1.16" ry="1.16"/><path class="cls-2" d="M79.9,45.81V68H3V45.81H79.9m.34-3H2.66A2.66,2.66,0,0,0,0,45.46V68.34A2.66,2.66,0,0,0,2.66,71H80.24a2.66,2.66,0,0,0,2.66-2.66V45.46a2.66,2.66,0,0,0-2.66-2.66Z" transform="translate(0 -4.02)"/><rect class="cls-2" x="1.52" y="39.94" width="24.25" height="25.82"/><path class="cls-1" d="M21.18,66.87c0,.32,0,.65-.06,1h-17c0-.32-.06-.65-.06-1a8.56,8.56,0,0,1,6.3-8.24,5.12,5.12,0,1,1,4.49,0A8.56,8.56,0,0,1,21.18,66.87Z" transform="translate(0 -4.02)"/><rect class="cls-1" x="111.1" y="79.08" width="79.9" height="25.19" rx="1.16" ry="1.16"/><path class="cls-2" d="M189.5,84.6v22.19H112.6V84.6h76.9m.34-3H112.26a2.66,2.66,0,0,0-2.66,2.66v22.88a2.66,2.66,0,0,0,2.66,2.66h77.59a2.66,2.66,0,0,0,2.66-2.66V84.25a2.66,2.66,0,0,0-2.66-2.66Z" transform="translate(0 -4.02)"/><rect class="cls-2" x="111.12" y="78.73" width="24.25" height="25.82"/><path class="cls-1" d="M130.78,105.66c0,.32,0,.65-.06,1h-17c0-.32-.06-.65-.06-1a8.56,8.56,0,0,1,6.3-8.24,5.12,5.12,0,1,1,4.49,0A8.56,8.56,0,0,1,130.78,105.66Z" transform="translate(0 -4.02)"/><rect class="cls-1" x="1.5" y="79.08" width="79.9" height="25.19" rx="1.16" ry="1.16"/><path class="cls-2" d="M79.9,84.6v22.19H3V84.6H79.9m.34-3H2.66A2.66,2.66,0,0,0,0,84.25v22.88a2.66,2.66,0,0,0,2.66,2.66H80.24a2.66,2.66,0,0,0,2.66-2.66V84.25a2.66,2.66,0,0,0-2.66-2.66Z" transform="translate(0 -4.02)"/><rect class="cls-2" x="1.52" y="78.73" width="24.25" height="25.82"/><path class="cls-1" d="M21.18,105.66c0,.32,0,.65-.06,1h-17c0-.32-.06-.65-.06-1a8.56,8.56,0,0,1,6.3-8.24,5.12,5.12,0,1,1,4.49,0A8.56,8.56,0,0,1,21.18,105.66Z" transform="translate(0 -4.02)"/><rect class="cls-1" x="1.5" y="117.91" width="79.9" height="25.19" rx="1.16" ry="1.16"/><path class="cls-2" d="M79.9,123.42v22.19H3V123.42H79.9m.34-3H2.66A2.66,2.66,0,0,0,0,123.08V146a2.66,2.66,0,0,0,2.66,2.66H80.24A2.66,2.66,0,0,0,82.9,146V123.08a2.66,2.66,0,0,0-2.66-2.66Z" transform="translate(0 -4.02)"/><rect class="cls-2" x="1.52" y="117.56" width="24.25" height="25.82"/><path class="cls-1" d="M21.18,144.49c0,.32,0,.65-.06,1h-17c0-.32-.06-.65-.06-1a8.56,8.56,0,0,1,6.3-8.24,5.12,5.12,0,1,1,4.49,0A8.56,8.56,0,0,1,21.18,144.49Z" transform="translate(0 -4.02)"/><rect class="cls-1" x="204.6" y="79.12" width="79.9" height="25.19" rx="1.16" ry="1.16"/><path class="cls-2" d="M283,84.63v22.19H206.1V84.63H283m.34-3H205.76a2.66,2.66,0,0,0-2.66,2.66v22.88a2.66,2.66,0,0,0,2.66,2.66h77.59a2.66,2.66,0,0,0,2.66-2.66V84.29a2.66,2.66,0,0,0-2.66-2.66Z" transform="translate(0 -4.02)"/><rect class="cls-2" x="204.62" y="78.77" width="24.25" height="25.82"/><path class="cls-1" d="M224.28,105.7c0,.32,0,.65-.06,1h-17c0-.32-.06-.65-.06-1a8.56,8.56,0,0,1,6.3-8.24,5.12,5.12,0,1,1,4.49,0A8.56,8.56,0,0,1,224.28,105.7Z" transform="translate(0 -4.02)"/><rect class="cls-1" x="157.85" y="40.29" width="79.9" height="25.19" rx="1.16" ry="1.16"/><path class="cls-2" d="M236.25,45.81V68h-76.9V45.81h76.9m.34-3H159a2.66,2.66,0,0,0-2.66,2.66V68.34A2.66,2.66,0,0,0,159,71H236.6a2.66,2.66,0,0,0,2.66-2.66V45.46a2.66,2.66,0,0,0-2.66-2.66Z" transform="translate(0 -4.02)"/><rect class="cls-2" x="157.87" y="39.94" width="24.25" height="25.82"/><path class="cls-1" d="M177.53,66.87c0,.32,0,.65-.06,1h-17c0-.32-.06-.65-.06-1a8.56,8.56,0,0,1,6.3-8.24,5.12,5.12,0,1,1,4.49,0A8.56,8.56,0,0,1,177.53,66.87Z" transform="translate(0 -4.02)"/><line class="cls-3" x1="145.54" y1="26.97" x2="145.54" y2="33.45"/><path class="cls-4" d="M41.45,43.92V40.13a2.66,2.66,0,0,1,2.66-2.66h151a2.66,2.66,0,0,1,2.66,2.66V44" transform="translate(0 -4.02)"/><line class="cls-3" x1="197.8" y1="65.76" x2="197.8" y2="72.24"/><path class="cls-4" d="M151.05,82.71V78.92a2.66,2.66,0,0,1,2.66-2.66h88.18a2.66,2.66,0,0,1,2.66,2.66v3.83" transform="translate(0 -4.02)"/><rect class="cls-1" x="64.35" y="156.73" width="79.9" height="25.19" rx="1.16" ry="1.16"/><path class="cls-2" d="M142.75,162.25v22.19H65.85V162.25h76.9m.34-3H65.51a2.66,2.66,0,0,0-2.66,2.66v22.88a2.66,2.66,0,0,0,2.66,2.66H143.1a2.66,2.66,0,0,0,2.66-2.66V161.91a2.66,2.66,0,0,0-2.66-2.66Z" transform="translate(0 -4.02)"/><rect class="cls-2" x="64.38" y="156.38" width="24.25" height="25.82"/><path class="cls-1" d="M84,183.31c0,.32,0,.65-.06,1H67c0-.32-.06-.65-.06-1a8.56,8.56,0,0,1,6.3-8.24,5.12,5.12,0,1,1,4.49,0A8.56,8.56,0,0,1,84,183.31Z" transform="translate(0 -4.02)"/><rect class="cls-1" x="157.85" y="156.77" width="79.9" height="25.19" rx="1.16" ry="1.16"/><path class="cls-2" d="M236.25,162.29v22.19h-76.9V162.29h76.9m.34-3H159a2.66,2.66,0,0,0-2.66,2.66v22.88a2.66,2.66,0,0,0,2.66,2.66H236.6a2.66,2.66,0,0,0,2.66-2.66V161.94a2.66,2.66,0,0,0-2.66-2.66Z" transform="translate(0 -4.02)"/><rect class="cls-2" x="157.87" y="156.42" width="24.25" height="25.82"/><path class="cls-1" d="M177.53,183.35c0,.32,0,.65-.06,1h-17c0-.32-.06-.65-.06-1a8.56,8.56,0,0,1,6.3-8.24,5.12,5.12,0,1,1,4.49,0A8.56,8.56,0,0,1,177.53,183.35Z" transform="translate(0 -4.02)"/><rect class="cls-1" x="111.1" y="117.94" width="79.9" height="25.19" rx="1.16" ry="1.16"/><path class="cls-2" d="M189.5,123.46v22.19H112.6V123.46h76.9m.34-3H112.26a2.66,2.66,0,0,0-2.66,2.66V146a2.66,2.66,0,0,0,2.66,2.66h77.59A2.66,2.66,0,0,0,192.5,146V123.12a2.66,2.66,0,0,0-2.66-2.66Z" transform="translate(0 -4.02)"/><rect class="cls-2" x="111.12" y="117.59" width="24.25" height="25.82"/><path class="cls-1" d="M130.78,144.52c0,.32,0,.65-.06,1h-17c0-.32-.06-.65-.06-1a8.56,8.56,0,0,1,6.3-8.24,5.12,5.12,0,1,1,4.49,0A8.56,8.56,0,0,1,130.78,144.52Z" transform="translate(0 -4.02)"/><line class="cls-3" x1="151.05" y1="143.41" x2="151.05" y2="149.9"/><path class="cls-4" d="M104.3,160.36v-3.79a2.66,2.66,0,0,1,2.66-2.66h88.18a2.66,2.66,0,0,1,2.66,2.66v3.83" transform="translate(0 -4.02)"/><line class="cls-4" x1="41.45" y1="64.43" x2="41.45" y2="78.77"/><line class="cls-4" x1="41.45" y1="104.59" x2="41.45" y2="118.93"/><rect class="cls-1" x="157.85" y="195.64" width="79.9" height="25.19" rx="1.16" ry="1.16"/><path class="cls-2" d="M236.25,201.15v22.19h-76.9V201.15h76.9m.34-3H159a2.66,2.66,0,0,0-2.66,2.66v22.88a2.66,2.66,0,0,0,2.66,2.66H236.6a2.66,2.66,0,0,0,2.66-2.66V200.81a2.66,2.66,0,0,0-2.66-2.66Z" transform="translate(0 -4.02)"/><rect class="cls-2" x="157.87" y="195.29" width="24.25" height="25.82"/><path class="cls-1" d="M177.53,222.21c0,.32,0,.65-.06,1h-17c0-.32-.06-.65-.06-1a8.56,8.56,0,0,1,6.3-8.24,5.12,5.12,0,1,1,4.49,0A8.56,8.56,0,0,1,177.53,222.21Z" transform="translate(0 -4.02)"/><line class="cls-4" x1="197.8" y1="182.31" x2="197.8" y2="196.66"/><line class="cls-4" x1="151.05" y1="104.59" x2="151.05" y2="118.93"/></svg>