<?xml version="1.0" encoding="UTF-8" standalone="no"?>
<svg
   xmlns:dc="http://purl.org/dc/elements/1.1/"
   xmlns:cc="http://creativecommons.org/ns#"
   xmlns:rdf="http://www.w3.org/1999/02/22-rdf-syntax-ns#"
   xmlns:svg="http://www.w3.org/2000/svg"
   xmlns="http://www.w3.org/2000/svg"
   xmlns:sodipodi="http://sodipodi.sourceforge.net/DTD/sodipodi-0.dtd"
   xmlns:inkscape="http://www.inkscape.org/namespaces/inkscape"
   width="232.358"
   height="133.829"
   version="1.1"
   id="svg36"
   sodipodi:docname="process.svg"
   inkscape:version="1.0.1 (3bc2e813f5, 2020-09-07)">
  <metadata
     id="metadata42">
    <rdf:RDF>
      <cc:Work
         rdf:about="">
        <dc:format>image/svg+xml</dc:format>
        <dc:type
           rdf:resource="http://purl.org/dc/dcmitype/StillImage" />
      </cc:Work>
    </rdf:RDF>
  </metadata>
  <defs
     id="defs40" />
  <sodipodi:namedview
     pagecolor="#ffffff"
     bordercolor="#666666"
     borderopacity="1"
     objecttolerance="10"
     gridtolerance="10"
     guidetolerance="10"
     inkscape:pageopacity="0"
     inkscape:pageshadow="2"
     inkscape:window-width="1920"
     inkscape:window-height="1001"
     id="namedview38"
     showgrid="false"
     inkscape:zoom="6.2019445"
     inkscape:cx="116.179"
     inkscape:cy="66.914497"
     inkscape:window-x="-9"
     inkscape:window-y="-9"
     inkscape:window-maximized="1"
     inkscape:current-layer="svg36" />
  <path
     fill="none"
     stroke="#3EA3DC"
     stroke-width="2"
     stroke-linecap="round"
     stroke-miterlimit="10"
     d="M60.956 44.362h16.986m113.116-.27h19.434"
     id="path2" />
  <circle
     fill="none"
     stroke="#E30613"
     stroke-width="3"
     stroke-linecap="round"
     stroke-miterlimit="10"
     cx="222.053"
     cy="44.093"
     r="8.566"
     id="circle4" />
  <path
     fill="none"
     stroke="#3EA3DC"
     stroke-width="2"
     stroke-linecap="round"
     stroke-miterlimit="10"
     d="M98.906 76.7l-6-.034v-20.81m39.33 3.907l.084 17.087-6.273-.06m-1.127-66.04h7.4v18.47m-39.414 1.588v-20.06h5.567"
     id="path6" />
  <path
     fill="#FFF"
     d="M124.92 19.15c0 1.1-.9 2-2 2h-20.613c-1.1 0-2-.9-2-2V3.013c0-1.1.9-2 2-2h20.612c1.1 0 2 .9 2 2V19.15z"
     id="path8" />
  <path
     fill="none"
     stroke="#3EA3DC"
     stroke-width="2"
     stroke-linecap="round"
     stroke-miterlimit="10"
     d="M124.92 19.15c0 1.1-.9 2-2 2h-20.613c-1.1 0-2-.9-2-2V3.013c0-1.1.9-2 2-2h20.612c1.1 0 2 .9 2 2V19.15z"
     id="path10" />
  <path
     fill="#FFF"
     d="M124.92 84.953c0 1.1-.9 2-2 2h-20.613c-1.1 0-2-.9-2-2V68.817c0-1.1.9-2 2-2h20.612c1.1 0 2 .9 2 2v16.136z"
     id="path12" />
  <path
     fill="none"
     stroke="#3EA3DC"
     stroke-width="2"
     stroke-linecap="round"
     stroke-miterlimit="10"
     d="M124.92 84.953c0 1.1-.9 2-2 2h-20.613c-1.1 0-2-.9-2-2V68.817c0-1.1.9-2 2-2h20.612c1.1 0 2 .9 2 2v16.136z"
     id="path14" />
  <path
     fill="#FFF"
     stroke="#3EA3DC"
     stroke-width="2"
     stroke-linecap="round"
     stroke-miterlimit="10"
     d="M144.642 44.276l-12.318 12.322L120 44.278l12.318-12.322zm-39.414 0L92.91 56.596l-12.324-12.32 12.318-12.32z"
     id="path16" />
  <path
     fill="none"
     stroke="#3EA3DC"
     stroke-width="2"
     stroke-linecap="round"
     stroke-miterlimit="10"
     d="M18.036 44.362H37.08"
     id="path18" />
  <path
     fill="none"
     stroke="#95C11F"
     stroke-width="2"
     stroke-miterlimit="10"
     d="M18.168 44.093a8.565 8.565 0 0 1-8.566 8.566c-4.728 0-8.566-3.84-8.566-8.57s3.838-8.57 8.566-8.57a8.566 8.566 0 0 1 8.566 8.565z"
     id="path20" />
  <path
     fill="#FFF"
     d="M64.586 52.61c0 1.1-.9 2-2 2H41.974c-1.1 0-2-.9-2-2V36.47c0-1.1.9-2 2-2h20.612c1.1 0 2 .9 2 2v16.14z"
     id="path22" />
  <path
     fill="none"
     stroke="#3EA3DC"
     stroke-width="2"
     stroke-linecap="round"
     stroke-miterlimit="10"
     d="M64.586 52.61c0 1.1-.9 2-2 2H41.974c-1.1 0-2-.9-2-2V36.47c0-1.1.9-2 2-2h20.612c1.1 0 2 .9 2 2v16.14zm28.176-11.828v7.16m-3.58-3.58h7.16m48.298-.262h20.122"
     id="path24" />
  <path
     fill="#FFF"
     d="M191.058 52.615c0 1.1-.9 2-2 2h-20.612c-1.1 0-2-.9-2-2V36.478c0-1.1.9-2 2-2h20.612c1.1 0 2 .9 2 2v16.137z"
     id="path26" />
  <path
     fill="none"
     stroke="#3EA3DC"
     stroke-width="2"
     stroke-linecap="round"
     stroke-miterlimit="10"
     d="M191.058 52.615c0 1.1-.9 2-2 2h-20.612c-1.1 0-2-.9-2-2V36.478c0-1.1.9-2 2-2h20.612c1.1 0 2 .9 2 2v16.137z"
     id="path28" />
  <path
     d="M132.235 40.826v7.16m-3.58-3.58h7.16m-100.628-2.51l2.467 2.466-2.467 2.467m40.29-4.94l2.465 2.465-2.466 2.467M96.006 8.28l2.467 2.467-2.467 2.465m.33 61.017l2.468 2.46-2.467 2.465m66.018-37.533l2.467 2.467-2.467 2.465m45.67-4.94l2.467 2.467-2.467 2.467M129.77 62.23l2.465-2.467 2.467 2.467m-4.85-35.475l2.468 2.467 2.467-2.467"
     fill="none"
     stroke="#3EA3DC"
     stroke-width="2"
     stroke-linecap="round"
     stroke-miterlimit="10"
     id="path34" />
</svg>
