<?xml version="1.0" encoding="utf-8"?>
<!-- Generator: Adobe Illustrator 23.0.1, SVG Export Plug-In . SVG Version: 6.00 Build 0)  -->
<svg version="1.0" id="Calque_1" xmlns="http://www.w3.org/2000/svg" xmlns:xlink="http://www.w3.org/1999/xlink" x="0px" y="0px"
	 viewBox="0 0 42.52 42.52" enable-background="new 0 0 42.52 42.52" xml:space="preserve">
<g>
	<path fill="#182F5E" d="M40.29,1.42H2.23c-0.45,0-0.81,0.49-0.81,1.1V40c0,0.61,0.37,1.1,0.81,1.1h38.06c0.45,0,0.81-0.49,0.81-1.1
		V2.52C41.1,1.91,40.74,1.42,40.29,1.42z M37.68,37.02H4.84V16.86h32.84V37.02z M37.68,8.57H4.84V5.5h32.84V8.57z"/>
	<rect x="5.79" y="27.4" fill="#182F5E" width="5.84" height="1.83"/>
	<rect x="12.78" y="27.4" fill="#182F5E" width="5.84" height="1.83"/>
	<rect x="19.83" y="27.4" fill="#182F5E" width="5.84" height="1.83"/>
	<rect x="26.82" y="27.4" fill="#182F5E" width="5.84" height="1.83"/>
	<rect x="19.83" y="30.6" fill="#182F5E" width="12.83" height="1.83"/>
</g>
<path fill="#FFFFFF" d="M12.72,29.23h-1.1V27.4h1.1V29.23z"/>
<path fill="#FFFFFF" d="M19.83,29.23h-1.22V27.4h1.22V29.23z"/>
<path fill="#FFFFFF" d="M26.8,29.23h-1.1V27.4h1.1V29.23z"/>
<path fill="#FFFFFF" d="M32.66,30.6H5.79v-1.37h26.87V30.6z"/>
</svg>
