<?xml version="1.0" encoding="utf-8"?>
<!-- Generator: Adobe Illustrator 23.0.1, SVG Export Plug-In . SVG Version: 6.00 Build 0)  -->
<svg version="1.1" id="Calque_1" xmlns="http://www.w3.org/2000/svg" xmlns:xlink="http://www.w3.org/1999/xlink" x="0px" y="0px"
	 viewBox="0 0 8.5 7.1" style="enable-background:new 0 0 8.5 7.1;" xml:space="preserve">
<path d="M0.7,6.5C0.7,6.5,0.7,6.5,0.7,6.5L0.7,6.5C0.7,6.5,0.7,6.5,0.7,6.5l7.1,0c0.3,0,0.6-0.3,0.6-0.6V2.4c0-0.1-0.1-0.3-0.1-0.4
	C8.1,1.9,7.9,1.8,7.8,1.8H3.7L3.1,0.6H0.7c-0.3,0-0.6,0.3-0.6,0.6v4.7c0,0.1,0,0.2,0,0.2C0.3,6.3,0.5,6.5,0.7,6.5z"/>
</svg>
