<?xml version="1.0" encoding="utf-8"?>
<!-- Generator: Adobe Illustrator 23.0.1, SVG Export Plug-In . SVG Version: 6.00 Build 0)  -->
<svg version="1.1" id="Calque_1" xmlns="http://www.w3.org/2000/svg" xmlns:xlink="http://www.w3.org/1999/xlink" x="0px" y="0px"
	 viewBox="0 0 19.8 19.8" style="enable-background:new 0 0 19.8 19.8;" xml:space="preserve">
<style type="text/css">
	.st0{fill-rule:evenodd;clip-rule:evenodd;}
</style>
<path d="M8.6,4.4c-1.1,0-2.1,0.4-3,1.2c-0.8,0.8-1.2,1.9-1.2,3c0,1.1,0.4,2.1,1.2,3c0.8,0.8,1.9,1.2,3,1.2c1.1,0,2.1-0.4,3-1.2
	c0.8-0.8,1.2-1.9,1.2-3c0-1.1-0.4-2.1-1.2-3C10.7,4.8,9.6,4.4,8.6,4.4 M4.5,4.5c1.1-1.1,2.6-1.7,4.1-1.7s2.9,0.6,4.1,1.7
	c1.1,1.1,1.7,2.6,1.7,4.1c0,1.1-0.3,2.2-0.9,3.1l0,0l3.3,3.3c0.5,0.5,0.5,1.2,0,1.6l0,0c-0.5,0.5-1.2,0.5-1.6,0l-3.3-3.3l0,0
	c-1,0.6-2,0.9-3.1,0.9c-1.5,0-2.9-0.6-4.1-1.7C3.4,11.5,2.8,10,2.8,8.6C2.8,7.1,3.4,5.6,4.5,4.5z"/>
<polygon class="st0" points="6,7.6 7.6,7.6 9.6,7.6 11.2,7.6 11.2,9.5 9.6,9.5 7.6,9.5 6,9.5 "/>
</svg>
